<mxfile host="Electron" modified="2023-09-30T05:28:22.240Z" agent="Mozilla/5.0 (Windows NT 10.0; Win64; x64) AppleWebKit/537.36 (KHTML, like Gecko) draw.io/22.0.0 Chrome/114.0.5735.289 Electron/25.8.3 Safari/537.36" etag="k3gwX2k17cn3W1j-c-Ch" version="22.0.0" type="device">
  <diagram name="Page-1" id="Zwcdp388tOu4irtX7Ygd">
    <mxGraphModel dx="2117" dy="1194" grid="1" gridSize="10" guides="1" tooltips="1" connect="1" arrows="1" fold="1" page="1" pageScale="1" pageWidth="850" pageHeight="1100" math="0" shadow="0">
      <root>
        <mxCell id="0" />
        <mxCell id="1" parent="0" />
        <mxCell id="OliUhdP2USkakImF6EFZ-1" value="&lt;p class=&quot;MsoTitle&quot;&gt;&lt;b&gt;&lt;font style=&quot;font-size: 24px;&quot;&gt;Smuggler (Merchant)&lt;/font&gt;&lt;/b&gt;&lt;/p&gt;" style="text;html=1;strokeColor=none;fillColor=none;align=center;verticalAlign=middle;whiteSpace=wrap;rounded=0;strokeWidth=2;" parent="1" vertex="1">
          <mxGeometry x="50" y="200" width="270" height="70" as="geometry" />
        </mxCell>
        <mxCell id="gAUJLccjg5dXfvc0wC-y-1" value="AguaArdiente" style="swimlane;fontStyle=1;align=center;verticalAlign=top;childLayout=stackLayout;horizontal=1;startSize=26;horizontalStack=0;resizeParent=1;resizeParentMax=0;resizeLast=0;collapsible=1;marginBottom=0;whiteSpace=wrap;html=1;" vertex="1" parent="1">
          <mxGeometry x="91" y="1820" width="250" height="86" as="geometry" />
        </mxCell>
        <mxCell id="gAUJLccjg5dXfvc0wC-y-3" value="" style="line;strokeWidth=1;fillColor=none;align=left;verticalAlign=middle;spacingTop=-1;spacingLeft=3;spacingRight=3;rotatable=0;labelPosition=right;points=[];portConstraint=eastwest;strokeColor=inherit;" vertex="1" parent="gAUJLccjg5dXfvc0wC-y-1">
          <mxGeometry y="26" width="250" height="8" as="geometry" />
        </mxCell>
        <mxCell id="gAUJLccjg5dXfvc0wC-y-4" value="+ AguaArdiente(String)" style="text;strokeColor=none;fillColor=none;align=left;verticalAlign=top;spacingLeft=4;spacingRight=4;overflow=hidden;rotatable=0;points=[[0,0.5],[1,0.5]];portConstraint=eastwest;whiteSpace=wrap;html=1;" vertex="1" parent="gAUJLccjg5dXfvc0wC-y-1">
          <mxGeometry y="34" width="250" height="26" as="geometry" />
        </mxCell>
        <mxCell id="gAUJLccjg5dXfvc0wC-y-25" value="+ AguaArdiente(String,double,double,int)" style="text;strokeColor=none;fillColor=none;align=left;verticalAlign=top;spacingLeft=4;spacingRight=4;overflow=hidden;rotatable=0;points=[[0,0.5],[1,0.5]];portConstraint=eastwest;whiteSpace=wrap;html=1;" vertex="1" parent="gAUJLccjg5dXfvc0wC-y-1">
          <mxGeometry y="60" width="250" height="26" as="geometry" />
        </mxCell>
        <mxCell id="gAUJLccjg5dXfvc0wC-y-5" value="Tequila" style="swimlane;fontStyle=1;align=center;verticalAlign=top;childLayout=stackLayout;horizontal=1;startSize=26;horizontalStack=0;resizeParent=1;resizeParentMax=0;resizeLast=0;collapsible=1;marginBottom=0;whiteSpace=wrap;html=1;" vertex="1" parent="1">
          <mxGeometry x="411" y="1820" width="250" height="86" as="geometry" />
        </mxCell>
        <mxCell id="gAUJLccjg5dXfvc0wC-y-7" value="" style="line;strokeWidth=1;fillColor=none;align=left;verticalAlign=middle;spacingTop=-1;spacingLeft=3;spacingRight=3;rotatable=0;labelPosition=right;points=[];portConstraint=eastwest;strokeColor=inherit;" vertex="1" parent="gAUJLccjg5dXfvc0wC-y-5">
          <mxGeometry y="26" width="250" height="8" as="geometry" />
        </mxCell>
        <mxCell id="gAUJLccjg5dXfvc0wC-y-8" value="+ Tequila(String)" style="text;strokeColor=none;fillColor=none;align=left;verticalAlign=top;spacingLeft=4;spacingRight=4;overflow=hidden;rotatable=0;points=[[0,0.5],[1,0.5]];portConstraint=eastwest;whiteSpace=wrap;html=1;" vertex="1" parent="gAUJLccjg5dXfvc0wC-y-5">
          <mxGeometry y="34" width="250" height="26" as="geometry" />
        </mxCell>
        <mxCell id="gAUJLccjg5dXfvc0wC-y-26" value="+ Tequila(String,double,double,int)" style="text;strokeColor=none;fillColor=none;align=left;verticalAlign=top;spacingLeft=4;spacingRight=4;overflow=hidden;rotatable=0;points=[[0,0.5],[1,0.5]];portConstraint=eastwest;whiteSpace=wrap;html=1;" vertex="1" parent="gAUJLccjg5dXfvc0wC-y-5">
          <mxGeometry y="60" width="250" height="26" as="geometry" />
        </mxCell>
        <mxCell id="gAUJLccjg5dXfvc0wC-y-9" value="Tabacco" style="swimlane;fontStyle=1;align=center;verticalAlign=top;childLayout=stackLayout;horizontal=1;startSize=26;horizontalStack=0;resizeParent=1;resizeParentMax=0;resizeLast=0;collapsible=1;marginBottom=0;whiteSpace=wrap;html=1;" vertex="1" parent="1">
          <mxGeometry x="731" y="1820" width="250" height="86" as="geometry" />
        </mxCell>
        <mxCell id="gAUJLccjg5dXfvc0wC-y-11" value="" style="line;strokeWidth=1;fillColor=none;align=left;verticalAlign=middle;spacingTop=-1;spacingLeft=3;spacingRight=3;rotatable=0;labelPosition=right;points=[];portConstraint=eastwest;strokeColor=inherit;" vertex="1" parent="gAUJLccjg5dXfvc0wC-y-9">
          <mxGeometry y="26" width="250" height="8" as="geometry" />
        </mxCell>
        <mxCell id="gAUJLccjg5dXfvc0wC-y-12" value="+ Tequila(String)" style="text;strokeColor=none;fillColor=none;align=left;verticalAlign=top;spacingLeft=4;spacingRight=4;overflow=hidden;rotatable=0;points=[[0,0.5],[1,0.5]];portConstraint=eastwest;whiteSpace=wrap;html=1;" vertex="1" parent="gAUJLccjg5dXfvc0wC-y-9">
          <mxGeometry y="34" width="250" height="26" as="geometry" />
        </mxCell>
        <mxCell id="gAUJLccjg5dXfvc0wC-y-27" value="+ Tequila(String,double,double,int)" style="text;strokeColor=none;fillColor=none;align=left;verticalAlign=top;spacingLeft=4;spacingRight=4;overflow=hidden;rotatable=0;points=[[0,0.5],[1,0.5]];portConstraint=eastwest;whiteSpace=wrap;html=1;" vertex="1" parent="gAUJLccjg5dXfvc0wC-y-9">
          <mxGeometry y="60" width="250" height="26" as="geometry" />
        </mxCell>
        <mxCell id="gAUJLccjg5dXfvc0wC-y-28" value="Hachis" style="swimlane;fontStyle=1;align=center;verticalAlign=top;childLayout=stackLayout;horizontal=1;startSize=26;horizontalStack=0;resizeParent=1;resizeParentMax=0;resizeLast=0;collapsible=1;marginBottom=0;whiteSpace=wrap;html=1;" vertex="1" parent="1">
          <mxGeometry x="1051" y="1820" width="250" height="86" as="geometry" />
        </mxCell>
        <mxCell id="gAUJLccjg5dXfvc0wC-y-29" value="" style="line;strokeWidth=1;fillColor=none;align=left;verticalAlign=middle;spacingTop=-1;spacingLeft=3;spacingRight=3;rotatable=0;labelPosition=right;points=[];portConstraint=eastwest;strokeColor=inherit;" vertex="1" parent="gAUJLccjg5dXfvc0wC-y-28">
          <mxGeometry y="26" width="250" height="8" as="geometry" />
        </mxCell>
        <mxCell id="gAUJLccjg5dXfvc0wC-y-30" value="+ Hachis(String)" style="text;strokeColor=none;fillColor=none;align=left;verticalAlign=top;spacingLeft=4;spacingRight=4;overflow=hidden;rotatable=0;points=[[0,0.5],[1,0.5]];portConstraint=eastwest;whiteSpace=wrap;html=1;" vertex="1" parent="gAUJLccjg5dXfvc0wC-y-28">
          <mxGeometry y="34" width="250" height="26" as="geometry" />
        </mxCell>
        <mxCell id="gAUJLccjg5dXfvc0wC-y-31" value="+ Hachis(String,double,double,int)" style="text;strokeColor=none;fillColor=none;align=left;verticalAlign=top;spacingLeft=4;spacingRight=4;overflow=hidden;rotatable=0;points=[[0,0.5],[1,0.5]];portConstraint=eastwest;whiteSpace=wrap;html=1;" vertex="1" parent="gAUJLccjg5dXfvc0wC-y-28">
          <mxGeometry y="60" width="250" height="26" as="geometry" />
        </mxCell>
        <mxCell id="gAUJLccjg5dXfvc0wC-y-32" value="Weed" style="swimlane;fontStyle=1;align=center;verticalAlign=top;childLayout=stackLayout;horizontal=1;startSize=26;horizontalStack=0;resizeParent=1;resizeParentMax=0;resizeLast=0;collapsible=1;marginBottom=0;whiteSpace=wrap;html=1;" vertex="1" parent="1">
          <mxGeometry x="1371" y="1820" width="250" height="86" as="geometry" />
        </mxCell>
        <mxCell id="gAUJLccjg5dXfvc0wC-y-33" value="" style="line;strokeWidth=1;fillColor=none;align=left;verticalAlign=middle;spacingTop=-1;spacingLeft=3;spacingRight=3;rotatable=0;labelPosition=right;points=[];portConstraint=eastwest;strokeColor=inherit;" vertex="1" parent="gAUJLccjg5dXfvc0wC-y-32">
          <mxGeometry y="26" width="250" height="8" as="geometry" />
        </mxCell>
        <mxCell id="gAUJLccjg5dXfvc0wC-y-34" value="+ Weed(String)" style="text;strokeColor=none;fillColor=none;align=left;verticalAlign=top;spacingLeft=4;spacingRight=4;overflow=hidden;rotatable=0;points=[[0,0.5],[1,0.5]];portConstraint=eastwest;whiteSpace=wrap;html=1;" vertex="1" parent="gAUJLccjg5dXfvc0wC-y-32">
          <mxGeometry y="34" width="250" height="26" as="geometry" />
        </mxCell>
        <mxCell id="gAUJLccjg5dXfvc0wC-y-35" value="+ Weed(String,double,double,int)" style="text;strokeColor=none;fillColor=none;align=left;verticalAlign=top;spacingLeft=4;spacingRight=4;overflow=hidden;rotatable=0;points=[[0,0.5],[1,0.5]];portConstraint=eastwest;whiteSpace=wrap;html=1;" vertex="1" parent="gAUJLccjg5dXfvc0wC-y-32">
          <mxGeometry y="60" width="250" height="26" as="geometry" />
        </mxCell>
        <mxCell id="gAUJLccjg5dXfvc0wC-y-36" value="&lt;i&gt;Abstract&amp;lt;&amp;lt;Item&amp;gt;&amp;gt;&lt;/i&gt;" style="swimlane;fontStyle=1;align=center;verticalAlign=top;childLayout=stackLayout;horizontal=1;startSize=26;horizontalStack=0;resizeParent=1;resizeParentMax=0;resizeLast=0;collapsible=1;marginBottom=0;whiteSpace=wrap;html=1;" vertex="1" parent="1">
          <mxGeometry x="731" y="1270" width="250" height="398" as="geometry" />
        </mxCell>
        <mxCell id="gAUJLccjg5dXfvc0wC-y-37" value="- quantity: int" style="text;strokeColor=none;fillColor=none;align=left;verticalAlign=top;spacingLeft=4;spacingRight=4;overflow=hidden;rotatable=0;points=[[0,0.5],[1,0.5]];portConstraint=eastwest;whiteSpace=wrap;html=1;" vertex="1" parent="gAUJLccjg5dXfvc0wC-y-36">
          <mxGeometry y="26" width="250" height="26" as="geometry" />
        </mxCell>
        <mxCell id="gAUJLccjg5dXfvc0wC-y-40" value="- buyPrice: double" style="text;strokeColor=none;fillColor=none;align=left;verticalAlign=top;spacingLeft=4;spacingRight=4;overflow=hidden;rotatable=0;points=[[0,0.5],[1,0.5]];portConstraint=eastwest;whiteSpace=wrap;html=1;" vertex="1" parent="gAUJLccjg5dXfvc0wC-y-36">
          <mxGeometry y="52" width="250" height="26" as="geometry" />
        </mxCell>
        <mxCell id="gAUJLccjg5dXfvc0wC-y-41" value="- salesPrice: double" style="text;strokeColor=none;fillColor=none;align=left;verticalAlign=top;spacingLeft=4;spacingRight=4;overflow=hidden;rotatable=0;points=[[0,0.5],[1,0.5]];portConstraint=eastwest;whiteSpace=wrap;html=1;" vertex="1" parent="gAUJLccjg5dXfvc0wC-y-36">
          <mxGeometry y="78" width="250" height="26" as="geometry" />
        </mxCell>
        <mxCell id="gAUJLccjg5dXfvc0wC-y-42" value="- name: string" style="text;strokeColor=none;fillColor=none;align=left;verticalAlign=top;spacingLeft=4;spacingRight=4;overflow=hidden;rotatable=0;points=[[0,0.5],[1,0.5]];portConstraint=eastwest;whiteSpace=wrap;html=1;" vertex="1" parent="gAUJLccjg5dXfvc0wC-y-36">
          <mxGeometry y="104" width="250" height="26" as="geometry" />
        </mxCell>
        <mxCell id="gAUJLccjg5dXfvc0wC-y-38" value="" style="line;strokeWidth=1;fillColor=none;align=left;verticalAlign=middle;spacingTop=-1;spacingLeft=3;spacingRight=3;rotatable=0;labelPosition=right;points=[];portConstraint=eastwest;strokeColor=inherit;" vertex="1" parent="gAUJLccjg5dXfvc0wC-y-36">
          <mxGeometry y="130" width="250" height="8" as="geometry" />
        </mxCell>
        <mxCell id="gAUJLccjg5dXfvc0wC-y-45" value="+ Item(String)" style="text;strokeColor=none;fillColor=none;align=left;verticalAlign=top;spacingLeft=4;spacingRight=4;overflow=hidden;rotatable=0;points=[[0,0.5],[1,0.5]];portConstraint=eastwest;whiteSpace=wrap;html=1;" vertex="1" parent="gAUJLccjg5dXfvc0wC-y-36">
          <mxGeometry y="138" width="250" height="26" as="geometry" />
        </mxCell>
        <mxCell id="gAUJLccjg5dXfvc0wC-y-44" value="+ Item(String, double, double, int)" style="text;strokeColor=none;fillColor=none;align=left;verticalAlign=top;spacingLeft=4;spacingRight=4;overflow=hidden;rotatable=0;points=[[0,0.5],[1,0.5]];portConstraint=eastwest;whiteSpace=wrap;html=1;" vertex="1" parent="gAUJLccjg5dXfvc0wC-y-36">
          <mxGeometry y="164" width="250" height="26" as="geometry" />
        </mxCell>
        <mxCell id="gAUJLccjg5dXfvc0wC-y-39" value="+ getName(): string" style="text;strokeColor=none;fillColor=none;align=left;verticalAlign=top;spacingLeft=4;spacingRight=4;overflow=hidden;rotatable=0;points=[[0,0.5],[1,0.5]];portConstraint=eastwest;whiteSpace=wrap;html=1;" vertex="1" parent="gAUJLccjg5dXfvc0wC-y-36">
          <mxGeometry y="190" width="250" height="26" as="geometry" />
        </mxCell>
        <mxCell id="gAUJLccjg5dXfvc0wC-y-43" value="+ setName(String): void" style="text;strokeColor=none;fillColor=none;align=left;verticalAlign=top;spacingLeft=4;spacingRight=4;overflow=hidden;rotatable=0;points=[[0,0.5],[1,0.5]];portConstraint=eastwest;whiteSpace=wrap;html=1;" vertex="1" parent="gAUJLccjg5dXfvc0wC-y-36">
          <mxGeometry y="216" width="250" height="26" as="geometry" />
        </mxCell>
        <mxCell id="gAUJLccjg5dXfvc0wC-y-46" value="+ getBuyPrice(): double" style="text;strokeColor=none;fillColor=none;align=left;verticalAlign=top;spacingLeft=4;spacingRight=4;overflow=hidden;rotatable=0;points=[[0,0.5],[1,0.5]];portConstraint=eastwest;whiteSpace=wrap;html=1;" vertex="1" parent="gAUJLccjg5dXfvc0wC-y-36">
          <mxGeometry y="242" width="250" height="26" as="geometry" />
        </mxCell>
        <mxCell id="gAUJLccjg5dXfvc0wC-y-47" value="+ setBuyPrice(double): void" style="text;strokeColor=none;fillColor=none;align=left;verticalAlign=top;spacingLeft=4;spacingRight=4;overflow=hidden;rotatable=0;points=[[0,0.5],[1,0.5]];portConstraint=eastwest;whiteSpace=wrap;html=1;" vertex="1" parent="gAUJLccjg5dXfvc0wC-y-36">
          <mxGeometry y="268" width="250" height="26" as="geometry" />
        </mxCell>
        <mxCell id="gAUJLccjg5dXfvc0wC-y-48" value="+ getSalesPrice(): double" style="text;strokeColor=none;fillColor=none;align=left;verticalAlign=top;spacingLeft=4;spacingRight=4;overflow=hidden;rotatable=0;points=[[0,0.5],[1,0.5]];portConstraint=eastwest;whiteSpace=wrap;html=1;" vertex="1" parent="gAUJLccjg5dXfvc0wC-y-36">
          <mxGeometry y="294" width="250" height="26" as="geometry" />
        </mxCell>
        <mxCell id="gAUJLccjg5dXfvc0wC-y-49" value="+ setSalesPrice(double): void" style="text;strokeColor=none;fillColor=none;align=left;verticalAlign=top;spacingLeft=4;spacingRight=4;overflow=hidden;rotatable=0;points=[[0,0.5],[1,0.5]];portConstraint=eastwest;whiteSpace=wrap;html=1;" vertex="1" parent="gAUJLccjg5dXfvc0wC-y-36">
          <mxGeometry y="320" width="250" height="26" as="geometry" />
        </mxCell>
        <mxCell id="gAUJLccjg5dXfvc0wC-y-50" value="+ getQuantity(): int" style="text;strokeColor=none;fillColor=none;align=left;verticalAlign=top;spacingLeft=4;spacingRight=4;overflow=hidden;rotatable=0;points=[[0,0.5],[1,0.5]];portConstraint=eastwest;whiteSpace=wrap;html=1;" vertex="1" parent="gAUJLccjg5dXfvc0wC-y-36">
          <mxGeometry y="346" width="250" height="26" as="geometry" />
        </mxCell>
        <mxCell id="gAUJLccjg5dXfvc0wC-y-51" value="+ setQuantity(int): void" style="text;strokeColor=none;fillColor=none;align=left;verticalAlign=top;spacingLeft=4;spacingRight=4;overflow=hidden;rotatable=0;points=[[0,0.5],[1,0.5]];portConstraint=eastwest;whiteSpace=wrap;html=1;" vertex="1" parent="gAUJLccjg5dXfvc0wC-y-36">
          <mxGeometry y="372" width="250" height="26" as="geometry" />
        </mxCell>
        <mxCell id="gAUJLccjg5dXfvc0wC-y-54" value="City" style="swimlane;fontStyle=1;align=center;verticalAlign=top;childLayout=stackLayout;horizontal=1;startSize=26;horizontalStack=0;resizeParent=1;resizeParentMax=0;resizeLast=0;collapsible=1;marginBottom=0;whiteSpace=wrap;html=1;" vertex="1" parent="1">
          <mxGeometry x="140" y="520" width="200" height="398" as="geometry" />
        </mxCell>
        <mxCell id="gAUJLccjg5dXfvc0wC-y-55" value="- name: String" style="text;strokeColor=none;fillColor=none;align=left;verticalAlign=top;spacingLeft=4;spacingRight=4;overflow=hidden;rotatable=0;points=[[0,0.5],[1,0.5]];portConstraint=eastwest;whiteSpace=wrap;html=1;" vertex="1" parent="gAUJLccjg5dXfvc0wC-y-54">
          <mxGeometry y="26" width="200" height="26" as="geometry" />
        </mxCell>
        <mxCell id="gAUJLccjg5dXfvc0wC-y-58" value="- index: int" style="text;strokeColor=none;fillColor=none;align=left;verticalAlign=top;spacingLeft=4;spacingRight=4;overflow=hidden;rotatable=0;points=[[0,0.5],[1,0.5]];portConstraint=eastwest;whiteSpace=wrap;html=1;" vertex="1" parent="gAUJLccjg5dXfvc0wC-y-54">
          <mxGeometry y="52" width="200" height="26" as="geometry" />
        </mxCell>
        <mxCell id="gAUJLccjg5dXfvc0wC-y-59" value="+ items: List&amp;lt;Item&amp;gt;" style="text;strokeColor=none;fillColor=none;align=left;verticalAlign=top;spacingLeft=4;spacingRight=4;overflow=hidden;rotatable=0;points=[[0,0.5],[1,0.5]];portConstraint=eastwest;whiteSpace=wrap;html=1;" vertex="1" parent="gAUJLccjg5dXfvc0wC-y-54">
          <mxGeometry y="78" width="200" height="26" as="geometry" />
        </mxCell>
        <mxCell id="gAUJLccjg5dXfvc0wC-y-56" value="" style="line;strokeWidth=1;fillColor=none;align=left;verticalAlign=middle;spacingTop=-1;spacingLeft=3;spacingRight=3;rotatable=0;labelPosition=right;points=[];portConstraint=eastwest;strokeColor=inherit;" vertex="1" parent="gAUJLccjg5dXfvc0wC-y-54">
          <mxGeometry y="104" width="200" height="8" as="geometry" />
        </mxCell>
        <mxCell id="gAUJLccjg5dXfvc0wC-y-62" value="+ City()" style="text;strokeColor=none;fillColor=none;align=left;verticalAlign=top;spacingLeft=4;spacingRight=4;overflow=hidden;rotatable=0;points=[[0,0.5],[1,0.5]];portConstraint=eastwest;whiteSpace=wrap;html=1;" vertex="1" parent="gAUJLccjg5dXfvc0wC-y-54">
          <mxGeometry y="112" width="200" height="26" as="geometry" />
        </mxCell>
        <mxCell id="gAUJLccjg5dXfvc0wC-y-67" value="+ City(String)" style="text;strokeColor=none;fillColor=none;align=left;verticalAlign=top;spacingLeft=4;spacingRight=4;overflow=hidden;rotatable=0;points=[[0,0.5],[1,0.5]];portConstraint=eastwest;whiteSpace=wrap;html=1;" vertex="1" parent="gAUJLccjg5dXfvc0wC-y-54">
          <mxGeometry y="138" width="200" height="26" as="geometry" />
        </mxCell>
        <mxCell id="gAUJLccjg5dXfvc0wC-y-68" value="+ City(String,&amp;nbsp;List&amp;lt;Item&amp;gt;)&lt;br&gt;)" style="text;strokeColor=none;fillColor=none;align=left;verticalAlign=top;spacingLeft=4;spacingRight=4;overflow=hidden;rotatable=0;points=[[0,0.5],[1,0.5]];portConstraint=eastwest;whiteSpace=wrap;html=1;" vertex="1" parent="gAUJLccjg5dXfvc0wC-y-54">
          <mxGeometry y="164" width="200" height="26" as="geometry" />
        </mxCell>
        <mxCell id="gAUJLccjg5dXfvc0wC-y-70" value="+ City(String,&amp;nbsp;List&amp;lt;Item&amp;gt;, int)&lt;br&gt;)" style="text;strokeColor=none;fillColor=none;align=left;verticalAlign=top;spacingLeft=4;spacingRight=4;overflow=hidden;rotatable=0;points=[[0,0.5],[1,0.5]];portConstraint=eastwest;whiteSpace=wrap;html=1;" vertex="1" parent="gAUJLccjg5dXfvc0wC-y-54">
          <mxGeometry y="190" width="200" height="26" as="geometry" />
        </mxCell>
        <mxCell id="gAUJLccjg5dXfvc0wC-y-57" value="+ getName(): String" style="text;strokeColor=none;fillColor=none;align=left;verticalAlign=top;spacingLeft=4;spacingRight=4;overflow=hidden;rotatable=0;points=[[0,0.5],[1,0.5]];portConstraint=eastwest;whiteSpace=wrap;html=1;" vertex="1" parent="gAUJLccjg5dXfvc0wC-y-54">
          <mxGeometry y="216" width="200" height="26" as="geometry" />
        </mxCell>
        <mxCell id="gAUJLccjg5dXfvc0wC-y-60" value="+ setName(String): void" style="text;strokeColor=none;fillColor=none;align=left;verticalAlign=top;spacingLeft=4;spacingRight=4;overflow=hidden;rotatable=0;points=[[0,0.5],[1,0.5]];portConstraint=eastwest;whiteSpace=wrap;html=1;" vertex="1" parent="gAUJLccjg5dXfvc0wC-y-54">
          <mxGeometry y="242" width="200" height="26" as="geometry" />
        </mxCell>
        <mxCell id="gAUJLccjg5dXfvc0wC-y-61" value="+ getItems(): List&amp;lt;Item&amp;gt;" style="text;strokeColor=none;fillColor=none;align=left;verticalAlign=top;spacingLeft=4;spacingRight=4;overflow=hidden;rotatable=0;points=[[0,0.5],[1,0.5]];portConstraint=eastwest;whiteSpace=wrap;html=1;" vertex="1" parent="gAUJLccjg5dXfvc0wC-y-54">
          <mxGeometry y="268" width="200" height="26" as="geometry" />
        </mxCell>
        <mxCell id="gAUJLccjg5dXfvc0wC-y-65" value="+ setItems(List&amp;lt;Item&amp;gt;): void&lt;br&gt;):&amp;nbsp;" style="text;strokeColor=none;fillColor=none;align=left;verticalAlign=top;spacingLeft=4;spacingRight=4;overflow=hidden;rotatable=0;points=[[0,0.5],[1,0.5]];portConstraint=eastwest;whiteSpace=wrap;html=1;" vertex="1" parent="gAUJLccjg5dXfvc0wC-y-54">
          <mxGeometry y="294" width="200" height="26" as="geometry" />
        </mxCell>
        <mxCell id="gAUJLccjg5dXfvc0wC-y-64" value="+ getIndex(): int" style="text;strokeColor=none;fillColor=none;align=left;verticalAlign=top;spacingLeft=4;spacingRight=4;overflow=hidden;rotatable=0;points=[[0,0.5],[1,0.5]];portConstraint=eastwest;whiteSpace=wrap;html=1;" vertex="1" parent="gAUJLccjg5dXfvc0wC-y-54">
          <mxGeometry y="320" width="200" height="26" as="geometry" />
        </mxCell>
        <mxCell id="gAUJLccjg5dXfvc0wC-y-63" value="+ setIndex(int): void" style="text;strokeColor=none;fillColor=none;align=left;verticalAlign=top;spacingLeft=4;spacingRight=4;overflow=hidden;rotatable=0;points=[[0,0.5],[1,0.5]];portConstraint=eastwest;whiteSpace=wrap;html=1;" vertex="1" parent="gAUJLccjg5dXfvc0wC-y-54">
          <mxGeometry y="346" width="200" height="26" as="geometry" />
        </mxCell>
        <mxCell id="gAUJLccjg5dXfvc0wC-y-66" value="+ displayCityDetail(): void" style="text;strokeColor=none;fillColor=none;align=left;verticalAlign=top;spacingLeft=4;spacingRight=4;overflow=hidden;rotatable=0;points=[[0,0.5],[1,0.5]];portConstraint=eastwest;whiteSpace=wrap;html=1;" vertex="1" parent="gAUJLccjg5dXfvc0wC-y-54">
          <mxGeometry y="372" width="200" height="26" as="geometry" />
        </mxCell>
        <mxCell id="gAUJLccjg5dXfvc0wC-y-71" value="CityManager" style="swimlane;fontStyle=1;align=center;verticalAlign=top;childLayout=stackLayout;horizontal=1;startSize=26;horizontalStack=0;resizeParent=1;resizeParentMax=0;resizeLast=0;collapsible=1;marginBottom=0;whiteSpace=wrap;html=1;" vertex="1" parent="1">
          <mxGeometry x="1360" y="520" width="210" height="398" as="geometry" />
        </mxCell>
        <mxCell id="gAUJLccjg5dXfvc0wC-y-72" value="- currentCityIndex: int" style="text;strokeColor=none;fillColor=none;align=left;verticalAlign=top;spacingLeft=4;spacingRight=4;overflow=hidden;rotatable=0;points=[[0,0.5],[1,0.5]];portConstraint=eastwest;whiteSpace=wrap;html=1;" vertex="1" parent="gAUJLccjg5dXfvc0wC-y-71">
          <mxGeometry y="26" width="210" height="26" as="geometry" />
        </mxCell>
        <mxCell id="gAUJLccjg5dXfvc0wC-y-75" value="- cities: List&amp;lt;City&amp;gt;" style="text;strokeColor=none;fillColor=none;align=left;verticalAlign=top;spacingLeft=4;spacingRight=4;overflow=hidden;rotatable=0;points=[[0,0.5],[1,0.5]];portConstraint=eastwest;whiteSpace=wrap;html=1;" vertex="1" parent="gAUJLccjg5dXfvc0wC-y-71">
          <mxGeometry y="52" width="210" height="26" as="geometry" />
        </mxCell>
        <mxCell id="gAUJLccjg5dXfvc0wC-y-73" value="" style="line;strokeWidth=1;fillColor=none;align=left;verticalAlign=middle;spacingTop=-1;spacingLeft=3;spacingRight=3;rotatable=0;labelPosition=right;points=[];portConstraint=eastwest;strokeColor=inherit;" vertex="1" parent="gAUJLccjg5dXfvc0wC-y-71">
          <mxGeometry y="78" width="210" height="8" as="geometry" />
        </mxCell>
        <mxCell id="gAUJLccjg5dXfvc0wC-y-78" value="+ CityManager()" style="text;strokeColor=none;fillColor=none;align=left;verticalAlign=top;spacingLeft=4;spacingRight=4;overflow=hidden;rotatable=0;points=[[0,0.5],[1,0.5]];portConstraint=eastwest;whiteSpace=wrap;html=1;" vertex="1" parent="gAUJLccjg5dXfvc0wC-y-71">
          <mxGeometry y="86" width="210" height="26" as="geometry" />
        </mxCell>
        <mxCell id="gAUJLccjg5dXfvc0wC-y-80" value="+ prepareCities(): void" style="text;strokeColor=none;fillColor=none;align=left;verticalAlign=top;spacingLeft=4;spacingRight=4;overflow=hidden;rotatable=0;points=[[0,0.5],[1,0.5]];portConstraint=eastwest;whiteSpace=wrap;html=1;" vertex="1" parent="gAUJLccjg5dXfvc0wC-y-71">
          <mxGeometry y="112" width="210" height="26" as="geometry" />
        </mxCell>
        <mxCell id="gAUJLccjg5dXfvc0wC-y-74" value="+ getCurrentCityIndex(): int" style="text;strokeColor=none;fillColor=none;align=left;verticalAlign=top;spacingLeft=4;spacingRight=4;overflow=hidden;rotatable=0;points=[[0,0.5],[1,0.5]];portConstraint=eastwest;whiteSpace=wrap;html=1;" vertex="1" parent="gAUJLccjg5dXfvc0wC-y-71">
          <mxGeometry y="138" width="210" height="26" as="geometry" />
        </mxCell>
        <mxCell id="gAUJLccjg5dXfvc0wC-y-77" value="+ setCurrentCityIndex(int): void" style="text;strokeColor=none;fillColor=none;align=left;verticalAlign=top;spacingLeft=4;spacingRight=4;overflow=hidden;rotatable=0;points=[[0,0.5],[1,0.5]];portConstraint=eastwest;whiteSpace=wrap;html=1;" vertex="1" parent="gAUJLccjg5dXfvc0wC-y-71">
          <mxGeometry y="164" width="210" height="26" as="geometry" />
        </mxCell>
        <mxCell id="gAUJLccjg5dXfvc0wC-y-76" value="+ getCities(): List&amp;lt;City&amp;gt;" style="text;strokeColor=none;fillColor=none;align=left;verticalAlign=top;spacingLeft=4;spacingRight=4;overflow=hidden;rotatable=0;points=[[0,0.5],[1,0.5]];portConstraint=eastwest;whiteSpace=wrap;html=1;" vertex="1" parent="gAUJLccjg5dXfvc0wC-y-71">
          <mxGeometry y="190" width="210" height="26" as="geometry" />
        </mxCell>
        <mxCell id="gAUJLccjg5dXfvc0wC-y-81" value="+ getCurrentCity(): City" style="text;strokeColor=none;fillColor=none;align=left;verticalAlign=top;spacingLeft=4;spacingRight=4;overflow=hidden;rotatable=0;points=[[0,0.5],[1,0.5]];portConstraint=eastwest;whiteSpace=wrap;html=1;" vertex="1" parent="gAUJLccjg5dXfvc0wC-y-71">
          <mxGeometry y="216" width="210" height="26" as="geometry" />
        </mxCell>
        <mxCell id="gAUJLccjg5dXfvc0wC-y-82" value="+ getCurrentIndex(): int" style="text;strokeColor=none;fillColor=none;align=left;verticalAlign=top;spacingLeft=4;spacingRight=4;overflow=hidden;rotatable=0;points=[[0,0.5],[1,0.5]];portConstraint=eastwest;whiteSpace=wrap;html=1;" vertex="1" parent="gAUJLccjg5dXfvc0wC-y-71">
          <mxGeometry y="242" width="210" height="26" as="geometry" />
        </mxCell>
        <mxCell id="gAUJLccjg5dXfvc0wC-y-79" value="- setInventory(): void" style="text;strokeColor=none;fillColor=none;align=left;verticalAlign=top;spacingLeft=4;spacingRight=4;overflow=hidden;rotatable=0;points=[[0,0.5],[1,0.5]];portConstraint=eastwest;whiteSpace=wrap;html=1;" vertex="1" parent="gAUJLccjg5dXfvc0wC-y-71">
          <mxGeometry y="268" width="210" height="26" as="geometry" />
        </mxCell>
        <mxCell id="gAUJLccjg5dXfvc0wC-y-83" value="~ getCurrentCityName(): String" style="text;strokeColor=none;fillColor=none;align=left;verticalAlign=top;spacingLeft=4;spacingRight=4;overflow=hidden;rotatable=0;points=[[0,0.5],[1,0.5]];portConstraint=eastwest;whiteSpace=wrap;html=1;" vertex="1" parent="gAUJLccjg5dXfvc0wC-y-71">
          <mxGeometry y="294" width="210" height="26" as="geometry" />
        </mxCell>
        <mxCell id="gAUJLccjg5dXfvc0wC-y-84" value="+ setRandomCity(): void" style="text;strokeColor=none;fillColor=none;align=left;verticalAlign=top;spacingLeft=4;spacingRight=4;overflow=hidden;rotatable=0;points=[[0,0.5],[1,0.5]];portConstraint=eastwest;whiteSpace=wrap;html=1;" vertex="1" parent="gAUJLccjg5dXfvc0wC-y-71">
          <mxGeometry y="320" width="210" height="26" as="geometry" />
        </mxCell>
        <mxCell id="gAUJLccjg5dXfvc0wC-y-86" value="+ getItemsForCity(String): List&amp;lt;Item&amp;gt;" style="text;strokeColor=none;fillColor=none;align=left;verticalAlign=top;spacingLeft=4;spacingRight=4;overflow=hidden;rotatable=0;points=[[0,0.5],[1,0.5]];portConstraint=eastwest;whiteSpace=wrap;html=1;" vertex="1" parent="gAUJLccjg5dXfvc0wC-y-71">
          <mxGeometry y="346" width="210" height="26" as="geometry" />
        </mxCell>
        <mxCell id="gAUJLccjg5dXfvc0wC-y-85" value="+ displayCities(): void" style="text;strokeColor=none;fillColor=none;align=left;verticalAlign=top;spacingLeft=4;spacingRight=4;overflow=hidden;rotatable=0;points=[[0,0.5],[1,0.5]];portConstraint=eastwest;whiteSpace=wrap;html=1;" vertex="1" parent="gAUJLccjg5dXfvc0wC-y-71">
          <mxGeometry y="372" width="210" height="26" as="geometry" />
        </mxCell>
        <mxCell id="gAUJLccjg5dXfvc0wC-y-87" value="ItemManager" style="swimlane;fontStyle=1;align=center;verticalAlign=top;childLayout=stackLayout;horizontal=1;startSize=26;horizontalStack=0;resizeParent=1;resizeParentMax=0;resizeLast=0;collapsible=1;marginBottom=0;whiteSpace=wrap;html=1;" vertex="1" parent="1">
          <mxGeometry x="301" y="1290" width="200" height="190" as="geometry" />
        </mxCell>
        <mxCell id="gAUJLccjg5dXfvc0wC-y-88" value="&lt;u&gt;- instance: ItemManager&lt;/u&gt;" style="text;strokeColor=none;fillColor=none;align=left;verticalAlign=top;spacingLeft=4;spacingRight=4;overflow=hidden;rotatable=0;points=[[0,0.5],[1,0.5]];portConstraint=eastwest;whiteSpace=wrap;html=1;" vertex="1" parent="gAUJLccjg5dXfvc0wC-y-87">
          <mxGeometry y="26" width="200" height="26" as="geometry" />
        </mxCell>
        <mxCell id="gAUJLccjg5dXfvc0wC-y-89" value="" style="line;strokeWidth=1;fillColor=none;align=left;verticalAlign=middle;spacingTop=-1;spacingLeft=3;spacingRight=3;rotatable=0;labelPosition=right;points=[];portConstraint=eastwest;strokeColor=inherit;" vertex="1" parent="gAUJLccjg5dXfvc0wC-y-87">
          <mxGeometry y="52" width="200" height="8" as="geometry" />
        </mxCell>
        <mxCell id="gAUJLccjg5dXfvc0wC-y-90" value="- ItemManager()" style="text;strokeColor=none;fillColor=none;align=left;verticalAlign=top;spacingLeft=4;spacingRight=4;overflow=hidden;rotatable=0;points=[[0,0.5],[1,0.5]];portConstraint=eastwest;whiteSpace=wrap;html=1;" vertex="1" parent="gAUJLccjg5dXfvc0wC-y-87">
          <mxGeometry y="60" width="200" height="26" as="geometry" />
        </mxCell>
        <mxCell id="gAUJLccjg5dXfvc0wC-y-92" value="+ setItemsByCity(): List&amp;lt;Item&amp;gt;" style="text;strokeColor=none;fillColor=none;align=left;verticalAlign=top;spacingLeft=4;spacingRight=4;overflow=hidden;rotatable=0;points=[[0,0.5],[1,0.5]];portConstraint=eastwest;whiteSpace=wrap;html=1;" vertex="1" parent="gAUJLccjg5dXfvc0wC-y-87">
          <mxGeometry y="86" width="200" height="26" as="geometry" />
        </mxCell>
        <mxCell id="gAUJLccjg5dXfvc0wC-y-93" value="+ getItem():void" style="text;strokeColor=none;fillColor=none;align=left;verticalAlign=top;spacingLeft=4;spacingRight=4;overflow=hidden;rotatable=0;points=[[0,0.5],[1,0.5]];portConstraint=eastwest;whiteSpace=wrap;html=1;" vertex="1" parent="gAUJLccjg5dXfvc0wC-y-87">
          <mxGeometry y="112" width="200" height="26" as="geometry" />
        </mxCell>
        <mxCell id="gAUJLccjg5dXfvc0wC-y-94" value="+ setItemBySmuggler():List&amp;lt;Item&amp;gt;" style="text;strokeColor=none;fillColor=none;align=left;verticalAlign=top;spacingLeft=4;spacingRight=4;overflow=hidden;rotatable=0;points=[[0,0.5],[1,0.5]];portConstraint=eastwest;whiteSpace=wrap;html=1;" vertex="1" parent="gAUJLccjg5dXfvc0wC-y-87">
          <mxGeometry y="138" width="200" height="26" as="geometry" />
        </mxCell>
        <mxCell id="gAUJLccjg5dXfvc0wC-y-95" value="&lt;u&gt;+ Instance():ItemManager&lt;/u&gt;" style="text;strokeColor=none;fillColor=none;align=left;verticalAlign=top;spacingLeft=4;spacingRight=4;overflow=hidden;rotatable=0;points=[[0,0.5],[1,0.5]];portConstraint=eastwest;whiteSpace=wrap;html=1;" vertex="1" parent="gAUJLccjg5dXfvc0wC-y-87">
          <mxGeometry y="164" width="200" height="26" as="geometry" />
        </mxCell>
        <mxCell id="gAUJLccjg5dXfvc0wC-y-96" value="Purchase" style="swimlane;fontStyle=1;align=center;verticalAlign=top;childLayout=stackLayout;horizontal=1;startSize=26;horizontalStack=0;resizeParent=1;resizeParentMax=0;resizeLast=0;collapsible=1;marginBottom=0;whiteSpace=wrap;html=1;" vertex="1" parent="1">
          <mxGeometry x="420" y="160" width="250" height="190" as="geometry" />
        </mxCell>
        <mxCell id="gAUJLccjg5dXfvc0wC-y-97" value="~ smuggler: Smuggler" style="text;strokeColor=none;fillColor=none;align=left;verticalAlign=top;spacingLeft=4;spacingRight=4;overflow=hidden;rotatable=0;points=[[0,0.5],[1,0.5]];portConstraint=eastwest;whiteSpace=wrap;html=1;" vertex="1" parent="gAUJLccjg5dXfvc0wC-y-96">
          <mxGeometry y="26" width="250" height="26" as="geometry" />
        </mxCell>
        <mxCell id="gAUJLccjg5dXfvc0wC-y-100" value="~ cityManager: CityManager" style="text;strokeColor=none;fillColor=none;align=left;verticalAlign=top;spacingLeft=4;spacingRight=4;overflow=hidden;rotatable=0;points=[[0,0.5],[1,0.5]];portConstraint=eastwest;whiteSpace=wrap;html=1;" vertex="1" parent="gAUJLccjg5dXfvc0wC-y-96">
          <mxGeometry y="52" width="250" height="26" as="geometry" />
        </mxCell>
        <mxCell id="gAUJLccjg5dXfvc0wC-y-98" value="" style="line;strokeWidth=1;fillColor=none;align=left;verticalAlign=middle;spacingTop=-1;spacingLeft=3;spacingRight=3;rotatable=0;labelPosition=right;points=[];portConstraint=eastwest;strokeColor=inherit;" vertex="1" parent="gAUJLccjg5dXfvc0wC-y-96">
          <mxGeometry y="78" width="250" height="8" as="geometry" />
        </mxCell>
        <mxCell id="gAUJLccjg5dXfvc0wC-y-99" value="+ Purchase(Smuggler, CityManager)" style="text;strokeColor=none;fillColor=none;align=left;verticalAlign=top;spacingLeft=4;spacingRight=4;overflow=hidden;rotatable=0;points=[[0,0.5],[1,0.5]];portConstraint=eastwest;whiteSpace=wrap;html=1;" vertex="1" parent="gAUJLccjg5dXfvc0wC-y-96">
          <mxGeometry y="86" width="250" height="26" as="geometry" />
        </mxCell>
        <mxCell id="gAUJLccjg5dXfvc0wC-y-101" value="+ BuyItem(String, int):void" style="text;strokeColor=none;fillColor=none;align=left;verticalAlign=top;spacingLeft=4;spacingRight=4;overflow=hidden;rotatable=0;points=[[0,0.5],[1,0.5]];portConstraint=eastwest;whiteSpace=wrap;html=1;" vertex="1" parent="gAUJLccjg5dXfvc0wC-y-96">
          <mxGeometry y="112" width="250" height="26" as="geometry" />
        </mxCell>
        <mxCell id="gAUJLccjg5dXfvc0wC-y-102" value="+ checkMoney(double):boolean" style="text;strokeColor=none;fillColor=none;align=left;verticalAlign=top;spacingLeft=4;spacingRight=4;overflow=hidden;rotatable=0;points=[[0,0.5],[1,0.5]];portConstraint=eastwest;whiteSpace=wrap;html=1;" vertex="1" parent="gAUJLccjg5dXfvc0wC-y-96">
          <mxGeometry y="138" width="250" height="26" as="geometry" />
        </mxCell>
        <mxCell id="gAUJLccjg5dXfvc0wC-y-103" value="+ getBuyPrices(String, String):double" style="text;strokeColor=none;fillColor=none;align=left;verticalAlign=top;spacingLeft=4;spacingRight=4;overflow=hidden;rotatable=0;points=[[0,0.5],[1,0.5]];portConstraint=eastwest;whiteSpace=wrap;html=1;" vertex="1" parent="gAUJLccjg5dXfvc0wC-y-96">
          <mxGeometry y="164" width="250" height="26" as="geometry" />
        </mxCell>
        <mxCell id="gAUJLccjg5dXfvc0wC-y-104" value="Sell" style="swimlane;fontStyle=1;align=center;verticalAlign=top;childLayout=stackLayout;horizontal=1;startSize=26;horizontalStack=0;resizeParent=1;resizeParentMax=0;resizeLast=0;collapsible=1;marginBottom=0;whiteSpace=wrap;html=1;" vertex="1" parent="1">
          <mxGeometry x="1080" y="160" width="250" height="190" as="geometry" />
        </mxCell>
        <mxCell id="gAUJLccjg5dXfvc0wC-y-105" value="~ smuggler: Smuggler" style="text;strokeColor=none;fillColor=none;align=left;verticalAlign=top;spacingLeft=4;spacingRight=4;overflow=hidden;rotatable=0;points=[[0,0.5],[1,0.5]];portConstraint=eastwest;whiteSpace=wrap;html=1;" vertex="1" parent="gAUJLccjg5dXfvc0wC-y-104">
          <mxGeometry y="26" width="250" height="26" as="geometry" />
        </mxCell>
        <mxCell id="gAUJLccjg5dXfvc0wC-y-108" value="~ cityManager: CityManager" style="text;strokeColor=none;fillColor=none;align=left;verticalAlign=top;spacingLeft=4;spacingRight=4;overflow=hidden;rotatable=0;points=[[0,0.5],[1,0.5]];portConstraint=eastwest;whiteSpace=wrap;html=1;" vertex="1" parent="gAUJLccjg5dXfvc0wC-y-104">
          <mxGeometry y="52" width="250" height="26" as="geometry" />
        </mxCell>
        <mxCell id="gAUJLccjg5dXfvc0wC-y-106" value="" style="line;strokeWidth=1;fillColor=none;align=left;verticalAlign=middle;spacingTop=-1;spacingLeft=3;spacingRight=3;rotatable=0;labelPosition=right;points=[];portConstraint=eastwest;strokeColor=inherit;" vertex="1" parent="gAUJLccjg5dXfvc0wC-y-104">
          <mxGeometry y="78" width="250" height="8" as="geometry" />
        </mxCell>
        <mxCell id="gAUJLccjg5dXfvc0wC-y-107" value="+ Sell(Smuggler, CityManager)" style="text;strokeColor=none;fillColor=none;align=left;verticalAlign=top;spacingLeft=4;spacingRight=4;overflow=hidden;rotatable=0;points=[[0,0.5],[1,0.5]];portConstraint=eastwest;whiteSpace=wrap;html=1;" vertex="1" parent="gAUJLccjg5dXfvc0wC-y-104">
          <mxGeometry y="86" width="250" height="26" as="geometry" />
        </mxCell>
        <mxCell id="gAUJLccjg5dXfvc0wC-y-109" value="+ SellItem(String, int): void" style="text;strokeColor=none;fillColor=none;align=left;verticalAlign=top;spacingLeft=4;spacingRight=4;overflow=hidden;rotatable=0;points=[[0,0.5],[1,0.5]];portConstraint=eastwest;whiteSpace=wrap;html=1;" vertex="1" parent="gAUJLccjg5dXfvc0wC-y-104">
          <mxGeometry y="112" width="250" height="26" as="geometry" />
        </mxCell>
        <mxCell id="gAUJLccjg5dXfvc0wC-y-110" value="+ checkItemQuantity(String, int): boolean" style="text;strokeColor=none;fillColor=none;align=left;verticalAlign=top;spacingLeft=4;spacingRight=4;overflow=hidden;rotatable=0;points=[[0,0.5],[1,0.5]];portConstraint=eastwest;whiteSpace=wrap;html=1;" vertex="1" parent="gAUJLccjg5dXfvc0wC-y-104">
          <mxGeometry y="138" width="250" height="26" as="geometry" />
        </mxCell>
        <mxCell id="gAUJLccjg5dXfvc0wC-y-111" value="+ getSalesPrices(String, String): double" style="text;strokeColor=none;fillColor=none;align=left;verticalAlign=top;spacingLeft=4;spacingRight=4;overflow=hidden;rotatable=0;points=[[0,0.5],[1,0.5]];portConstraint=eastwest;whiteSpace=wrap;html=1;" vertex="1" parent="gAUJLccjg5dXfvc0wC-y-104">
          <mxGeometry y="164" width="250" height="26" as="geometry" />
        </mxCell>
        <mxCell id="gAUJLccjg5dXfvc0wC-y-149" value="Extends" style="endArrow=block;endSize=16;endFill=0;html=1;rounded=0;" edge="1" parent="1" source="gAUJLccjg5dXfvc0wC-y-1" target="gAUJLccjg5dXfvc0wC-y-36">
          <mxGeometry width="160" relative="1" as="geometry">
            <mxPoint x="471" y="1680" as="sourcePoint" />
            <mxPoint x="631" y="1680" as="targetPoint" />
          </mxGeometry>
        </mxCell>
        <mxCell id="gAUJLccjg5dXfvc0wC-y-150" value="Extends" style="endArrow=block;endSize=16;endFill=0;html=1;rounded=0;" edge="1" parent="1" source="gAUJLccjg5dXfvc0wC-y-5" target="gAUJLccjg5dXfvc0wC-y-36">
          <mxGeometry width="160" relative="1" as="geometry">
            <mxPoint x="521" y="1370" as="sourcePoint" />
            <mxPoint x="681" y="1370" as="targetPoint" />
          </mxGeometry>
        </mxCell>
        <mxCell id="gAUJLccjg5dXfvc0wC-y-151" value="Extends" style="endArrow=block;endSize=16;endFill=0;html=1;rounded=0;" edge="1" parent="1" source="gAUJLccjg5dXfvc0wC-y-9" target="gAUJLccjg5dXfvc0wC-y-36">
          <mxGeometry width="160" relative="1" as="geometry">
            <mxPoint x="751" y="1350" as="sourcePoint" />
            <mxPoint x="911" y="1350" as="targetPoint" />
          </mxGeometry>
        </mxCell>
        <mxCell id="gAUJLccjg5dXfvc0wC-y-152" value="Extends" style="endArrow=block;endSize=16;endFill=0;html=1;rounded=0;" edge="1" parent="1" source="gAUJLccjg5dXfvc0wC-y-28" target="gAUJLccjg5dXfvc0wC-y-36">
          <mxGeometry width="160" relative="1" as="geometry">
            <mxPoint x="951" y="1330" as="sourcePoint" />
            <mxPoint x="1111" y="1330" as="targetPoint" />
          </mxGeometry>
        </mxCell>
        <mxCell id="gAUJLccjg5dXfvc0wC-y-153" value="Extends" style="endArrow=block;endSize=16;endFill=0;html=1;rounded=0;" edge="1" parent="1" source="gAUJLccjg5dXfvc0wC-y-32" target="gAUJLccjg5dXfvc0wC-y-36">
          <mxGeometry width="160" relative="1" as="geometry">
            <mxPoint x="1281" y="1270" as="sourcePoint" />
            <mxPoint x="1441" y="1270" as="targetPoint" />
          </mxGeometry>
        </mxCell>
        <mxCell id="gAUJLccjg5dXfvc0wC-y-154" value="" style="endArrow=diamondThin;endFill=1;endSize=24;html=1;rounded=0;" edge="1" parent="1" source="gAUJLccjg5dXfvc0wC-y-71" target="gAUJLccjg5dXfvc0wC-y-104">
          <mxGeometry width="160" relative="1" as="geometry">
            <mxPoint x="1050" y="290" as="sourcePoint" />
            <mxPoint x="1260" y="220" as="targetPoint" />
          </mxGeometry>
        </mxCell>
        <mxCell id="gAUJLccjg5dXfvc0wC-y-155" value="" style="endArrow=diamondThin;endFill=1;endSize=24;html=1;rounded=0;" edge="1" parent="1" source="gAUJLccjg5dXfvc0wC-y-112" target="gAUJLccjg5dXfvc0wC-y-96">
          <mxGeometry width="160" relative="1" as="geometry">
            <mxPoint x="1080" y="190" as="sourcePoint" />
            <mxPoint x="1240" y="190" as="targetPoint" />
          </mxGeometry>
        </mxCell>
        <mxCell id="gAUJLccjg5dXfvc0wC-y-158" value="" style="endArrow=diamondThin;endFill=1;endSize=24;html=1;rounded=0;" edge="1" parent="1" source="gAUJLccjg5dXfvc0wC-y-112" target="gAUJLccjg5dXfvc0wC-y-96">
          <mxGeometry width="160" relative="1" as="geometry">
            <mxPoint x="380" y="310" as="sourcePoint" />
            <mxPoint x="540" y="310" as="targetPoint" />
          </mxGeometry>
        </mxCell>
        <mxCell id="gAUJLccjg5dXfvc0wC-y-159" value="" style="endArrow=diamondThin;endFill=1;endSize=24;html=1;rounded=0;" edge="1" parent="1" source="gAUJLccjg5dXfvc0wC-y-112" target="gAUJLccjg5dXfvc0wC-y-104">
          <mxGeometry width="160" relative="1" as="geometry">
            <mxPoint x="370" y="170" as="sourcePoint" />
            <mxPoint x="530" y="170" as="targetPoint" />
          </mxGeometry>
        </mxCell>
        <mxCell id="gAUJLccjg5dXfvc0wC-y-160" value="" style="endArrow=diamondThin;endFill=1;endSize=24;html=1;rounded=0;" edge="1" parent="1" source="gAUJLccjg5dXfvc0wC-y-54" target="gAUJLccjg5dXfvc0wC-y-112">
          <mxGeometry width="160" relative="1" as="geometry">
            <mxPoint x="450" y="710" as="sourcePoint" />
            <mxPoint x="610" y="710" as="targetPoint" />
          </mxGeometry>
        </mxCell>
        <mxCell id="gAUJLccjg5dXfvc0wC-y-161" value="" style="endArrow=diamondThin;endFill=1;endSize=24;html=1;rounded=0;" edge="1" parent="1" source="gAUJLccjg5dXfvc0wC-y-71" target="gAUJLccjg5dXfvc0wC-y-112">
          <mxGeometry width="160" relative="1" as="geometry">
            <mxPoint x="650" y="700" as="sourcePoint" />
            <mxPoint x="540" y="760" as="targetPoint" />
          </mxGeometry>
        </mxCell>
        <mxCell id="gAUJLccjg5dXfvc0wC-y-162" value="" style="endArrow=diamondThin;endFill=1;endSize=24;html=1;rounded=0;" edge="1" parent="1" source="gAUJLccjg5dXfvc0wC-y-71" target="gAUJLccjg5dXfvc0wC-y-112">
          <mxGeometry width="160" relative="1" as="geometry">
            <mxPoint x="1370" y="687" as="sourcePoint" />
            <mxPoint x="770" y="329" as="targetPoint" />
          </mxGeometry>
        </mxCell>
        <mxCell id="gAUJLccjg5dXfvc0wC-y-112" value="Smuggler" style="swimlane;fontStyle=1;align=center;verticalAlign=top;childLayout=stackLayout;horizontal=1;startSize=26;horizontalStack=0;resizeParent=1;resizeParentMax=0;resizeLast=0;collapsible=1;marginBottom=0;whiteSpace=wrap;html=1;" vertex="1" parent="1">
          <mxGeometry x="750" y="380" width="230" height="788" as="geometry" />
        </mxCell>
        <mxCell id="gAUJLccjg5dXfvc0wC-y-113" value="- inventory: List&amp;lt;Item&amp;gt;" style="text;strokeColor=none;fillColor=none;align=left;verticalAlign=top;spacingLeft=4;spacingRight=4;overflow=hidden;rotatable=0;points=[[0,0.5],[1,0.5]];portConstraint=eastwest;whiteSpace=wrap;html=1;" vertex="1" parent="gAUJLccjg5dXfvc0wC-y-112">
          <mxGeometry y="26" width="230" height="26" as="geometry" />
        </mxCell>
        <mxCell id="gAUJLccjg5dXfvc0wC-y-116" value="- cityManager: CityManager" style="text;strokeColor=none;fillColor=none;align=left;verticalAlign=top;spacingLeft=4;spacingRight=4;overflow=hidden;rotatable=0;points=[[0,0.5],[1,0.5]];portConstraint=eastwest;whiteSpace=wrap;html=1;" vertex="1" parent="gAUJLccjg5dXfvc0wC-y-112">
          <mxGeometry y="52" width="230" height="26" as="geometry" />
        </mxCell>
        <mxCell id="gAUJLccjg5dXfvc0wC-y-117" value="- amount: double" style="text;strokeColor=none;fillColor=none;align=left;verticalAlign=top;spacingLeft=4;spacingRight=4;overflow=hidden;rotatable=0;points=[[0,0.5],[1,0.5]];portConstraint=eastwest;whiteSpace=wrap;html=1;" vertex="1" parent="gAUJLccjg5dXfvc0wC-y-112">
          <mxGeometry y="78" width="230" height="26" as="geometry" />
        </mxCell>
        <mxCell id="gAUJLccjg5dXfvc0wC-y-118" value="- money: double" style="text;strokeColor=none;fillColor=none;align=left;verticalAlign=top;spacingLeft=4;spacingRight=4;overflow=hidden;rotatable=0;points=[[0,0.5],[1,0.5]];portConstraint=eastwest;whiteSpace=wrap;html=1;" vertex="1" parent="gAUJLccjg5dXfvc0wC-y-112">
          <mxGeometry y="104" width="230" height="26" as="geometry" />
        </mxCell>
        <mxCell id="gAUJLccjg5dXfvc0wC-y-119" value="- city: City" style="text;strokeColor=none;fillColor=none;align=left;verticalAlign=top;spacingLeft=4;spacingRight=4;overflow=hidden;rotatable=0;points=[[0,0.5],[1,0.5]];portConstraint=eastwest;whiteSpace=wrap;html=1;" vertex="1" parent="gAUJLccjg5dXfvc0wC-y-112">
          <mxGeometry y="130" width="230" height="26" as="geometry" />
        </mxCell>
        <mxCell id="gAUJLccjg5dXfvc0wC-y-120" value="- fine: int" style="text;strokeColor=none;fillColor=none;align=left;verticalAlign=top;spacingLeft=4;spacingRight=4;overflow=hidden;rotatable=0;points=[[0,0.5],[1,0.5]];portConstraint=eastwest;whiteSpace=wrap;html=1;" vertex="1" parent="gAUJLccjg5dXfvc0wC-y-112">
          <mxGeometry y="156" width="230" height="26" as="geometry" />
        </mxCell>
        <mxCell id="gAUJLccjg5dXfvc0wC-y-121" value="- Alive: boolean" style="text;strokeColor=none;fillColor=none;align=left;verticalAlign=top;spacingLeft=4;spacingRight=4;overflow=hidden;rotatable=0;points=[[0,0.5],[1,0.5]];portConstraint=eastwest;whiteSpace=wrap;html=1;" vertex="1" parent="gAUJLccjg5dXfvc0wC-y-112">
          <mxGeometry y="182" width="230" height="26" as="geometry" />
        </mxCell>
        <mxCell id="gAUJLccjg5dXfvc0wC-y-114" value="" style="line;strokeWidth=1;fillColor=none;align=left;verticalAlign=middle;spacingTop=-1;spacingLeft=3;spacingRight=3;rotatable=0;labelPosition=right;points=[];portConstraint=eastwest;strokeColor=inherit;" vertex="1" parent="gAUJLccjg5dXfvc0wC-y-112">
          <mxGeometry y="208" width="230" height="8" as="geometry" />
        </mxCell>
        <mxCell id="gAUJLccjg5dXfvc0wC-y-115" value="+ getInventory(): List&amp;lt;Item&amp;gt;" style="text;strokeColor=none;fillColor=none;align=left;verticalAlign=top;spacingLeft=4;spacingRight=4;overflow=hidden;rotatable=0;points=[[0,0.5],[1,0.5]];portConstraint=eastwest;whiteSpace=wrap;html=1;" vertex="1" parent="gAUJLccjg5dXfvc0wC-y-112">
          <mxGeometry y="216" width="230" height="26" as="geometry" />
        </mxCell>
        <mxCell id="gAUJLccjg5dXfvc0wC-y-122" value="+ getAmount(): double" style="text;strokeColor=none;fillColor=none;align=left;verticalAlign=top;spacingLeft=4;spacingRight=4;overflow=hidden;rotatable=0;points=[[0,0.5],[1,0.5]];portConstraint=eastwest;whiteSpace=wrap;html=1;" vertex="1" parent="gAUJLccjg5dXfvc0wC-y-112">
          <mxGeometry y="242" width="230" height="26" as="geometry" />
        </mxCell>
        <mxCell id="gAUJLccjg5dXfvc0wC-y-123" value="+ setAlive(boolean): void" style="text;strokeColor=none;fillColor=none;align=left;verticalAlign=top;spacingLeft=4;spacingRight=4;overflow=hidden;rotatable=0;points=[[0,0.5],[1,0.5]];portConstraint=eastwest;whiteSpace=wrap;html=1;" vertex="1" parent="gAUJLccjg5dXfvc0wC-y-112">
          <mxGeometry y="268" width="230" height="26" as="geometry" />
        </mxCell>
        <mxCell id="gAUJLccjg5dXfvc0wC-y-124" value="+ getMoney(): double" style="text;strokeColor=none;fillColor=none;align=left;verticalAlign=top;spacingLeft=4;spacingRight=4;overflow=hidden;rotatable=0;points=[[0,0.5],[1,0.5]];portConstraint=eastwest;whiteSpace=wrap;html=1;" vertex="1" parent="gAUJLccjg5dXfvc0wC-y-112">
          <mxGeometry y="294" width="230" height="26" as="geometry" />
        </mxCell>
        <mxCell id="gAUJLccjg5dXfvc0wC-y-125" value="+ setMoney(double): void" style="text;strokeColor=none;fillColor=none;align=left;verticalAlign=top;spacingLeft=4;spacingRight=4;overflow=hidden;rotatable=0;points=[[0,0.5],[1,0.5]];portConstraint=eastwest;whiteSpace=wrap;html=1;" vertex="1" parent="gAUJLccjg5dXfvc0wC-y-112">
          <mxGeometry y="320" width="230" height="26" as="geometry" />
        </mxCell>
        <mxCell id="gAUJLccjg5dXfvc0wC-y-126" value="+ getCity(): City" style="text;strokeColor=none;fillColor=none;align=left;verticalAlign=top;spacingLeft=4;spacingRight=4;overflow=hidden;rotatable=0;points=[[0,0.5],[1,0.5]];portConstraint=eastwest;whiteSpace=wrap;html=1;" vertex="1" parent="gAUJLccjg5dXfvc0wC-y-112">
          <mxGeometry y="346" width="230" height="26" as="geometry" />
        </mxCell>
        <mxCell id="gAUJLccjg5dXfvc0wC-y-127" value="+ setCity(City): void" style="text;strokeColor=none;fillColor=none;align=left;verticalAlign=top;spacingLeft=4;spacingRight=4;overflow=hidden;rotatable=0;points=[[0,0.5],[1,0.5]];portConstraint=eastwest;whiteSpace=wrap;html=1;" vertex="1" parent="gAUJLccjg5dXfvc0wC-y-112">
          <mxGeometry y="372" width="230" height="26" as="geometry" />
        </mxCell>
        <mxCell id="gAUJLccjg5dXfvc0wC-y-128" value="+ getFine(): int" style="text;strokeColor=none;fillColor=none;align=left;verticalAlign=top;spacingLeft=4;spacingRight=4;overflow=hidden;rotatable=0;points=[[0,0.5],[1,0.5]];portConstraint=eastwest;whiteSpace=wrap;html=1;" vertex="1" parent="gAUJLccjg5dXfvc0wC-y-112">
          <mxGeometry y="398" width="230" height="26" as="geometry" />
        </mxCell>
        <mxCell id="gAUJLccjg5dXfvc0wC-y-129" value="+ setFine(int): void" style="text;strokeColor=none;fillColor=none;align=left;verticalAlign=top;spacingLeft=4;spacingRight=4;overflow=hidden;rotatable=0;points=[[0,0.5],[1,0.5]];portConstraint=eastwest;whiteSpace=wrap;html=1;" vertex="1" parent="gAUJLccjg5dXfvc0wC-y-112">
          <mxGeometry y="424" width="230" height="26" as="geometry" />
        </mxCell>
        <mxCell id="gAUJLccjg5dXfvc0wC-y-130" value="+ Smuggler(City,CityManager)" style="text;strokeColor=none;fillColor=none;align=left;verticalAlign=top;spacingLeft=4;spacingRight=4;overflow=hidden;rotatable=0;points=[[0,0.5],[1,0.5]];portConstraint=eastwest;whiteSpace=wrap;html=1;" vertex="1" parent="gAUJLccjg5dXfvc0wC-y-112">
          <mxGeometry y="450" width="230" height="26" as="geometry" />
        </mxCell>
        <mxCell id="gAUJLccjg5dXfvc0wC-y-131" value="+ Smuggler()" style="text;strokeColor=none;fillColor=none;align=left;verticalAlign=top;spacingLeft=4;spacingRight=4;overflow=hidden;rotatable=0;points=[[0,0.5],[1,0.5]];portConstraint=eastwest;whiteSpace=wrap;html=1;" vertex="1" parent="gAUJLccjg5dXfvc0wC-y-112">
          <mxGeometry y="476" width="230" height="26" as="geometry" />
        </mxCell>
        <mxCell id="gAUJLccjg5dXfvc0wC-y-132" value="- sellWares(): void" style="text;strokeColor=none;fillColor=none;align=left;verticalAlign=top;spacingLeft=4;spacingRight=4;overflow=hidden;rotatable=0;points=[[0,0.5],[1,0.5]];portConstraint=eastwest;whiteSpace=wrap;html=1;" vertex="1" parent="gAUJLccjg5dXfvc0wC-y-112">
          <mxGeometry y="502" width="230" height="26" as="geometry" />
        </mxCell>
        <mxCell id="gAUJLccjg5dXfvc0wC-y-133" value="- buyWares(): void" style="text;strokeColor=none;fillColor=none;align=left;verticalAlign=top;spacingLeft=4;spacingRight=4;overflow=hidden;rotatable=0;points=[[0,0.5],[1,0.5]];portConstraint=eastwest;whiteSpace=wrap;html=1;" vertex="1" parent="gAUJLccjg5dXfvc0wC-y-112">
          <mxGeometry y="528" width="230" height="26" as="geometry" />
        </mxCell>
        <mxCell id="gAUJLccjg5dXfvc0wC-y-134" value="- travelNewCity(): void" style="text;strokeColor=none;fillColor=none;align=left;verticalAlign=top;spacingLeft=4;spacingRight=4;overflow=hidden;rotatable=0;points=[[0,0.5],[1,0.5]];portConstraint=eastwest;whiteSpace=wrap;html=1;" vertex="1" parent="gAUJLccjg5dXfvc0wC-y-112">
          <mxGeometry y="554" width="230" height="26" as="geometry" />
        </mxCell>
        <mxCell id="gAUJLccjg5dXfvc0wC-y-135" value="+ displayInventory(): void" style="text;strokeColor=none;fillColor=none;align=left;verticalAlign=top;spacingLeft=4;spacingRight=4;overflow=hidden;rotatable=0;points=[[0,0.5],[1,0.5]];portConstraint=eastwest;whiteSpace=wrap;html=1;" vertex="1" parent="gAUJLccjg5dXfvc0wC-y-112">
          <mxGeometry y="580" width="230" height="26" as="geometry" />
        </mxCell>
        <mxCell id="gAUJLccjg5dXfvc0wC-y-136" value="+ displayInventoryWithPrices(): void" style="text;strokeColor=none;fillColor=none;align=left;verticalAlign=top;spacingLeft=4;spacingRight=4;overflow=hidden;rotatable=0;points=[[0,0.5],[1,0.5]];portConstraint=eastwest;whiteSpace=wrap;html=1;" vertex="1" parent="gAUJLccjg5dXfvc0wC-y-112">
          <mxGeometry y="606" width="230" height="26" as="geometry" />
        </mxCell>
        <mxCell id="gAUJLccjg5dXfvc0wC-y-137" value="+ isAlive(): boolean" style="text;strokeColor=none;fillColor=none;align=left;verticalAlign=top;spacingLeft=4;spacingRight=4;overflow=hidden;rotatable=0;points=[[0,0.5],[1,0.5]];portConstraint=eastwest;whiteSpace=wrap;html=1;" vertex="1" parent="gAUJLccjg5dXfvc0wC-y-112">
          <mxGeometry y="632" width="230" height="26" as="geometry" />
        </mxCell>
        <mxCell id="gAUJLccjg5dXfvc0wC-y-138" value="+ addInventoryItem(String, int): void" style="text;strokeColor=none;fillColor=none;align=left;verticalAlign=top;spacingLeft=4;spacingRight=4;overflow=hidden;rotatable=0;points=[[0,0.5],[1,0.5]];portConstraint=eastwest;whiteSpace=wrap;html=1;" vertex="1" parent="gAUJLccjg5dXfvc0wC-y-112">
          <mxGeometry y="658" width="230" height="26" as="geometry" />
        </mxCell>
        <mxCell id="gAUJLccjg5dXfvc0wC-y-139" value="+ removeInventoryItem(String, int): void" style="text;strokeColor=none;fillColor=none;align=left;verticalAlign=top;spacingLeft=4;spacingRight=4;overflow=hidden;rotatable=0;points=[[0,0.5],[1,0.5]];portConstraint=eastwest;whiteSpace=wrap;html=1;" vertex="1" parent="gAUJLccjg5dXfvc0wC-y-112">
          <mxGeometry y="684" width="230" height="26" as="geometry" />
        </mxCell>
        <mxCell id="gAUJLccjg5dXfvc0wC-y-140" value="+ getInventoryByItem(String): int" style="text;strokeColor=none;fillColor=none;align=left;verticalAlign=top;spacingLeft=4;spacingRight=4;overflow=hidden;rotatable=0;points=[[0,0.5],[1,0.5]];portConstraint=eastwest;whiteSpace=wrap;html=1;" vertex="1" parent="gAUJLccjg5dXfvc0wC-y-112">
          <mxGeometry y="710" width="230" height="26" as="geometry" />
        </mxCell>
        <mxCell id="gAUJLccjg5dXfvc0wC-y-141" value="+ travelNewCity(String): String" style="text;strokeColor=none;fillColor=none;align=left;verticalAlign=top;spacingLeft=4;spacingRight=4;overflow=hidden;rotatable=0;points=[[0,0.5],[1,0.5]];portConstraint=eastwest;whiteSpace=wrap;html=1;" vertex="1" parent="gAUJLccjg5dXfvc0wC-y-112">
          <mxGeometry y="736" width="230" height="26" as="geometry" />
        </mxCell>
        <mxCell id="gAUJLccjg5dXfvc0wC-y-142" value="+ getCaughtChance(): int" style="text;strokeColor=none;fillColor=none;align=left;verticalAlign=top;spacingLeft=4;spacingRight=4;overflow=hidden;rotatable=0;points=[[0,0.5],[1,0.5]];portConstraint=eastwest;whiteSpace=wrap;html=1;" vertex="1" parent="gAUJLccjg5dXfvc0wC-y-112">
          <mxGeometry y="762" width="230" height="26" as="geometry" />
        </mxCell>
        <mxCell id="gAUJLccjg5dXfvc0wC-y-163" value="Use" style="endArrow=open;endSize=12;dashed=1;html=1;rounded=0;" edge="1" parent="1" source="gAUJLccjg5dXfvc0wC-y-96" target="gAUJLccjg5dXfvc0wC-y-112">
          <mxGeometry width="160" relative="1" as="geometry">
            <mxPoint x="470" y="550" as="sourcePoint" />
            <mxPoint x="600" y="480" as="targetPoint" />
            <Array as="points">
              <mxPoint x="545" y="530" />
            </Array>
          </mxGeometry>
        </mxCell>
        <mxCell id="gAUJLccjg5dXfvc0wC-y-164" value="Use" style="endArrow=open;endSize=12;dashed=1;html=1;rounded=0;" edge="1" parent="1" source="gAUJLccjg5dXfvc0wC-y-112" target="gAUJLccjg5dXfvc0wC-y-104">
          <mxGeometry width="160" relative="1" as="geometry">
            <mxPoint x="770" y="260" as="sourcePoint" />
            <mxPoint x="900" y="190" as="targetPoint" />
            <Array as="points">
              <mxPoint x="870" y="250" />
            </Array>
          </mxGeometry>
        </mxCell>
        <mxCell id="gAUJLccjg5dXfvc0wC-y-165" value="Use" style="endArrow=open;endSize=12;dashed=1;html=1;rounded=0;exitX=0.342;exitY=0;exitDx=0;exitDy=0;exitPerimeter=0;" edge="1" parent="1" source="gAUJLccjg5dXfvc0wC-y-112" target="gAUJLccjg5dXfvc0wC-y-96">
          <mxGeometry width="160" relative="1" as="geometry">
            <mxPoint x="490" y="570" as="sourcePoint" />
            <mxPoint x="620" y="500" as="targetPoint" />
            <Array as="points">
              <mxPoint x="830" y="250" />
            </Array>
          </mxGeometry>
        </mxCell>
        <mxCell id="gAUJLccjg5dXfvc0wC-y-166" value="Use" style="endArrow=open;endSize=12;dashed=1;html=1;rounded=0;" edge="1" parent="1" source="gAUJLccjg5dXfvc0wC-y-104" target="gAUJLccjg5dXfvc0wC-y-112">
          <mxGeometry width="160" relative="1" as="geometry">
            <mxPoint x="500" y="580" as="sourcePoint" />
            <mxPoint x="630" y="510" as="targetPoint" />
            <Array as="points">
              <mxPoint x="1200" y="530" />
            </Array>
          </mxGeometry>
        </mxCell>
        <mxCell id="gAUJLccjg5dXfvc0wC-y-167" value="Use" style="endArrow=open;endSize=12;dashed=1;html=1;rounded=0;" edge="1" parent="1" source="gAUJLccjg5dXfvc0wC-y-112" target="gAUJLccjg5dXfvc0wC-y-71">
          <mxGeometry width="160" relative="1" as="geometry">
            <mxPoint x="1110" y="1010" as="sourcePoint" />
            <mxPoint x="1240" y="940" as="targetPoint" />
            <Array as="points">
              <mxPoint x="1180" y="870" />
            </Array>
          </mxGeometry>
        </mxCell>
        <mxCell id="gAUJLccjg5dXfvc0wC-y-168" value="" style="endArrow=diamondThin;endFill=1;endSize=24;html=1;rounded=0;" edge="1" parent="1" source="gAUJLccjg5dXfvc0wC-y-54" target="gAUJLccjg5dXfvc0wC-y-71">
          <mxGeometry width="160" relative="1" as="geometry">
            <mxPoint x="1240" y="1040" as="sourcePoint" />
            <mxPoint x="1400" y="1040" as="targetPoint" />
            <Array as="points">
              <mxPoint x="240" y="1220" />
              <mxPoint x="860" y="1220" />
              <mxPoint x="1460" y="1220" />
            </Array>
          </mxGeometry>
        </mxCell>
        <mxCell id="gAUJLccjg5dXfvc0wC-y-169" value="Use" style="endArrow=open;endSize=12;dashed=1;html=1;rounded=0;" edge="1" parent="1" source="gAUJLccjg5dXfvc0wC-y-112" target="gAUJLccjg5dXfvc0wC-y-54">
          <mxGeometry width="160" relative="1" as="geometry">
            <mxPoint x="520" y="600" as="sourcePoint" />
            <mxPoint x="620" y="660" as="targetPoint" />
            <Array as="points">
              <mxPoint x="540" y="850" />
            </Array>
          </mxGeometry>
        </mxCell>
        <mxCell id="gAUJLccjg5dXfvc0wC-y-170" value="Use" style="endArrow=open;endSize=12;dashed=1;html=1;rounded=0;" edge="1" parent="1" source="gAUJLccjg5dXfvc0wC-y-104" target="gAUJLccjg5dXfvc0wC-y-71">
          <mxGeometry width="160" relative="1" as="geometry">
            <mxPoint x="530" y="610" as="sourcePoint" />
            <mxPoint x="660" y="540" as="targetPoint" />
            <Array as="points">
              <mxPoint x="1465" y="255" />
            </Array>
          </mxGeometry>
        </mxCell>
        <mxCell id="gAUJLccjg5dXfvc0wC-y-171" value="Use" style="endArrow=open;endSize=12;dashed=1;html=1;rounded=0;entryX=0.946;entryY=-0.003;entryDx=0;entryDy=0;entryPerimeter=0;" edge="1" parent="1" source="gAUJLccjg5dXfvc0wC-y-96" target="gAUJLccjg5dXfvc0wC-y-71">
          <mxGeometry width="160" relative="1" as="geometry">
            <mxPoint x="540" y="620" as="sourcePoint" />
            <mxPoint x="670" y="550" as="targetPoint" />
            <Array as="points">
              <mxPoint x="870" y="120" />
              <mxPoint x="1560" y="120" />
            </Array>
          </mxGeometry>
        </mxCell>
        <mxCell id="gAUJLccjg5dXfvc0wC-y-172" value="Use" style="endArrow=open;endSize=12;dashed=1;html=1;rounded=0;" edge="1" parent="1" source="gAUJLccjg5dXfvc0wC-y-87" target="gAUJLccjg5dXfvc0wC-y-36">
          <mxGeometry width="160" relative="1" as="geometry">
            <mxPoint x="541" y="690" as="sourcePoint" />
            <mxPoint x="671" y="620" as="targetPoint" />
          </mxGeometry>
        </mxCell>
        <mxCell id="gAUJLccjg5dXfvc0wC-y-173" value="Use" style="endArrow=open;endSize=12;dashed=1;html=1;rounded=0;" edge="1" parent="1" source="gAUJLccjg5dXfvc0wC-y-54" target="gAUJLccjg5dXfvc0wC-y-36">
          <mxGeometry width="160" relative="1" as="geometry">
            <mxPoint x="430" y="990" as="sourcePoint" />
            <mxPoint x="590" y="990" as="targetPoint" />
          </mxGeometry>
        </mxCell>
        <mxCell id="gAUJLccjg5dXfvc0wC-y-174" value="Use" style="endArrow=open;endSize=12;dashed=1;html=1;rounded=0;" edge="1" parent="1" source="gAUJLccjg5dXfvc0wC-y-71" target="gAUJLccjg5dXfvc0wC-y-54">
          <mxGeometry width="160" relative="1" as="geometry">
            <mxPoint x="1120" y="1000" as="sourcePoint" />
            <mxPoint x="1280" y="1000" as="targetPoint" />
            <Array as="points">
              <mxPoint x="1440" y="1200" />
              <mxPoint x="840" y="1200" />
              <mxPoint x="260" y="1200" />
            </Array>
          </mxGeometry>
        </mxCell>
        <mxCell id="gAUJLccjg5dXfvc0wC-y-175" value="" style="endArrow=diamondThin;endFill=0;endSize=24;html=1;rounded=0;" edge="1" parent="1" source="gAUJLccjg5dXfvc0wC-y-36" target="gAUJLccjg5dXfvc0wC-y-54">
          <mxGeometry width="160" relative="1" as="geometry">
            <mxPoint x="500" y="930" as="sourcePoint" />
            <mxPoint x="660" y="930" as="targetPoint" />
            <Array as="points">
              <mxPoint x="470" y="1120" />
            </Array>
          </mxGeometry>
        </mxCell>
      </root>
    </mxGraphModel>
  </diagram>
</mxfile>
